<?xml version="1.0" ?><svg xmlns="http://www.w3.org/2000/svg" width="3em" height="2em" viewBox="70 0 350 350" fill="none"  xmlns:xlink="http://www.w3.org/1999/xlink" version="1.1" viewBox="0 0 512 512" style="enable-background:new 0 0 512 512;" xml:space="preserve"><g id="_x35_0_x2C__Flowchart_x2C__diagram_x2C__strategic_plan_x2C__presentation_x2C__business_and_finance_x2C__plan"><g><g><path style="fill:#283954;" d="M436,143.92H266V92.67c0-5.522-4.478-10-10-10s-10,4.478-10,10v51.25H76c-5.522,0-10,4.478-10,10     v61.25c0,5.522,4.478,10,10,10s10-4.478,10-10v-51.25h160v41.25h-55c-5.522,0-10,4.478-10,10v81.66c0,5.522,4.478,10,10,10h55     v41.25h-80c-5.522,0-10,4.478-10,10v51.25h-55c-5.522,0-10,4.478-10,10V501c0,5.522,4.478,10,10,10h130c5.522,0,10-4.478,10-10     v-81.67c0-5.522-4.478-10-10-10h-55v-41.25h160v51.25c0,5.522,4.478,10,10,10s10-4.478,10-10v-61.25c0-5.522-4.478-10-10-10h-80     v-41.25h55c5.522,0,10-4.478,10-10v-81.66c0-5.522-4.478-10-10-10h-55v-41.25h160v51.25c0,5.522,4.478,10,10,10s10-4.478,10-10     v-61.25C446,148.397,441.522,143.92,436,143.92z M221,491H111v-61.67h110V491z M311,286.83H201v-61.66h110V286.83z"/></g><g><path style="fill:#5596FB;" d="M331,92.67V11c0-5.522-4.478-10-10-10H191c-5.522,0-10,4.478-10,10v81.67c0,5.522,4.478,10,10,10     h130C326.522,102.67,331,98.192,331,92.67z M311,82.67H201V21h110V82.67z"/><path style="fill:#5596FB;" d="M141,205.17H11c-5.522,0-10,4.478-10,10v81.66c0,5.522,4.478,10,10,10h130c5.522,0,10-4.478,10-10     v-81.66C151,209.647,146.522,205.17,141,205.17z M131,286.83H21v-61.66h110V286.83z"/><path style="fill:#5596FB;" d="M501,205.17H371c-5.522,0-10,4.478-10,10v81.66c0,5.522,4.478,10,10,10h130     c5.522,0,10-4.478,10-10v-81.66C511,209.647,506.522,205.17,501,205.17z M491,286.83H381v-61.66h110V286.83z"/><path style="fill:#5596FB;" d="M411,409.33H281c-5.522,0-10,4.478-10,10V501c0,5.522,4.478,10,10,10h130c5.522,0,10-4.478,10-10     v-81.67C421,413.808,416.522,409.33,411,409.33z M401,491H291v-61.67h110V491z"/></g></g></g><g id="Layer_1"/></svg>
